<mxGraphModel dx="1116" dy="579" grid="1" gridSize="8" guides="1" tooltips="1" connect="1" arrows="1" fold="1" page="1" pageScale="1" pageWidth="1169" pageHeight="827" background="#ffffff"><root><MiscDiagram modelType="MiscDiagram" lastModifiedUserId="dbush@ibm.com" description="" lastModified="2022-01-26T00:18:45Z" _id="miscdiagram_SyNq65yEY" label="DR CP4BA Config with Passive DC/AZ" id="0"><mxCell/></MiscDiagram><mxCell id="1" parent="0"/><mxCell id="miscdiagram_SyNq65yEY_23dyRMtWPbE9" value="Enterprise Load Balancers" style="aspect=fixed;perimeter=ellipsePerimeter;html=1;align=center;shadow=0;dashed=0;fontColor=#4277BB;labelBackgroundColor=#ffffff;fontSize=12;spacingTop=3;image;image=data:image/svg+xml,PHN2ZyB4bWxucz0iaHR0cDovL3d3dy53My5vcmcvMjAwMC9zdmciIHdpZHRoPSIxMDAuMDMyIiBoZWlnaHQ9IjEwMC4wMzIiIHZpZXdCb3g9IjAgMCA3NSA3NSIgZmlsbD0ibm9uZSIgZmlsbC1ydWxlPSJldmVub2RkIiBvdmVyZmxvdz0idmlzaWJsZSIgc3Ryb2tlLWxpbmVjYXA9InNxdWFyZSIgc3Ryb2tlLW1pdGVybGltaXQ9IjMiIGNvbG9yLWludGVycG9sYXRpb24tZmlsdGVycz0ic1JHQiI+PHN0eWxlPjwhW0NEQVRBWy5Ce2NvbG9yLWludGVycG9sYXRpb24tZmlsdGVyczpzUkdCfV1dPjwvc3R5bGU+PGNpcmNsZSByPSIzNy41IiBjeD0iMzcuNSIgY3k9IjM3LjUiIGZpbGw9IiM4ZGM1M2YiIGNsYXNzPSJCIi8+PHBhdGggZD0iTTUzLjE4NiA1My41NjJoOS4xMDd2Ny41MTZoLTkuMTA3em0tMjAuMjQgMGg5LjEwN3Y3LjUxNmgtOS4xMDd6bS0yMC4yNCAwaDkuMTA3djcuNTE2aC05LjEwN3pNMjcuNDYyIDcuMDRoMjAuMDc2djguODdIMjcuNDYyem04LjE2MiAxMS40ODN2Ny40OWgtMjAuMDhWNDkuMDNoMy43NVYyOS43NjNoMTYuMzN2MTkuMjUyaDMuNzVWMjkuNzYzaDE2LjMzVjQ5LjA0aDMuNzVWMjYuMDEzaC0yMC4wOHYtNy40OXoiIGZpbGw9IiNmZmYiIHBhaW50LW9yZGVyPSJub3JtYWwiIGNsYXNzPSJCIi8+PC9zdmc+;verticalAlign=top;" vertex="1" parent="1"><mxGeometry x="520" y="16" width="60" height="60" as="geometry"/></mxCell><UserObject placeholders="1" label="Data Center (Active)" Icon-Name="data--center" id="miscdiagram_SyNq65yEY_33dyRMtWI9Pm"><mxCell style="shape=mxgraph.ibm2mondrian.base;shapeType=pg;shapeLayout=expanded;colorFamily=blue;colorBackground=noColor:noColor;html=1;whiteSpace=wrap;metaEdit=1;strokeWidth=1;collapsible=0;recursiveResize=0;expand=0;fontFamily=IBM Plex Sans;fontColor=#000000;fontSize=14;image=;verticalAlign=middle;align=left;spacing=0;spacingLeft=12;spacingRight=16;spacingTop=0;spacingBottom=0;container=1" vertex="1" parent="1"><mxGeometry x="12" y="102" width="524" height="688" as="geometry"/></mxCell></UserObject><UserObject placeholders="1" label="OpenShift Cluster 1" Icon-Name="logo--openshift" id="miscdiagram_SyNq65yEY_43dyRMtW3VEf"><mxCell style="shape=mxgraph.ibm2mondrian.base;shapeType=pg;shapeLayout=expanded;colorFamily=blue;colorBackground=noColor:noColor;html=1;whiteSpace=wrap;metaEdit=1;strokeWidth=1;collapsible=0;recursiveResize=0;expand=0;fontFamily=IBM Plex Sans;fontColor=#000000;fontSize=14;image=;verticalAlign=middle;align=left;spacing=0;spacingLeft=12;spacingRight=16;spacingTop=0;spacingBottom=0;container=1" vertex="1" parent="miscdiagram_SyNq65yEY_33dyRMtWI9Pm"><mxGeometry x="10" y="56" width="502" height="608" as="geometry"/></mxCell></UserObject><UserObject placeholders="1" label="Router" Icon-Name="router" id="miscdiagram_SyNq65yEY_53dyRMtWoZAi"><mxCell style="shape=mxgraph.ibm2mondrian.base;shapeType=ln;shapeLayout=collapsed;colorFamily=blue;colorBackground=noColor:noColor;html=1;whiteSpace=wrap;metaEdit=1;strokeWidth=1;collapsible=0;recursiveResize=0;expand=0;fontFamily=IBM Plex Sans;fontColor=#000000;fontSize=14;image=;verticalAlign=top;align=center;spacing=0;spacingLeft=0;spacingRight=0;spacingTop=0;spacingBottom=0;verticalLabelPosition=bottom;labelPosition=center;positionText=bottom;container=1" vertex="1" parent="miscdiagram_SyNq65yEY_43dyRMtW3VEf"><mxGeometry x="198" y="-23" width="48" height="48" as="geometry"/></mxCell></UserObject><UserObject placeholders="1" label="Worker Node" Icon-Name="cloud" _id="userobject_31WyEjwNlAQ" id="miscdiagram_SyNq65yEY_63dyRMtW8UDh"><mxCell style="shape=mxgraph.ibm2mondrian.base;shapeType=lg;shapeLayout=expanded;colorFamily=blue;colorBackground=noColor:noColor;html=1;whiteSpace=wrap;metaEdit=1;strokeWidth=1;collapsible=0;recursiveResize=0;expand=0;fontFamily=IBM Plex Sans;fontColor=#000000;fontSize=14;image=;verticalAlign=middle;align=left;spacing=0;spacingLeft=12;spacingRight=16;spacingTop=0;spacingBottom=0;container=1" vertex="1" parent="miscdiagram_SyNq65yEY_43dyRMtW3VEf"><mxGeometry x="10" y="236" width="482" height="230" as="geometry"/></mxCell></UserObject><UserObject placeholders="1" label="IBM Spectrum Protect" Icon-Name="cube" _id="userobject_31WyEjwGBlt" id="miscdiagram_SyNq65yEY_73dyRMtWYqJp"><mxCell style="shape=mxgraph.ibm2mondrian.base;shapeType=lg;shapeLayout=expanded;colorFamily=green;colorBackground=noColor:noColor;html=1;whiteSpace=wrap;metaEdit=1;strokeWidth=1;collapsible=0;recursiveResize=0;expand=0;fontFamily=IBM Plex Sans;fontColor=#000000;fontSize=14;image=;verticalAlign=middle;align=left;spacing=0;spacingLeft=12;spacingRight=16;spacingTop=0;spacingBottom=0;container=1" vertex="1" parent="miscdiagram_SyNq65yEY_63dyRMtW8UDh"><mxGeometry x="180" y="81" width="144" height="68" as="geometry"/></mxCell></UserObject><UserObject placeholders="1" label="CP4BA" Icon-Name="cube" _id="userobject_32dVAacBq1S" id="miscdiagram_SyNq65yEY_83dyRMtWWet2"><mxCell style="shape=mxgraph.ibm2mondrian.base;shapeType=lg;shapeLayout=expanded;colorFamily=green;colorBackground=noColor:noColor;html=1;whiteSpace=wrap;metaEdit=1;strokeWidth=1;collapsible=0;recursiveResize=0;expand=0;fontFamily=IBM Plex Sans;fontColor=#000000;fontSize=14;image=;verticalAlign=middle;align=left;spacing=0;spacingLeft=12;spacingRight=16;spacingTop=0;spacingBottom=0;container=1;" vertex="1" parent="miscdiagram_SyNq65yEY_63dyRMtW8UDh"><mxGeometry x="20" y="78" width="144" height="68" as="geometry"/></mxCell></UserObject><UserObject placeholders="1" label="Deployment" Icon-Name="kubernetes" id="miscdiagram_SyNq65yEY_93dyRMtW0nXz"><mxCell style="shape=mxgraph.ibm2mondrian.base;shapeType=pg;shapeLayout=expanded;colorFamily=blue;colorBackground=noColor:noColor;html=1;whiteSpace=wrap;metaEdit=1;strokeWidth=1;collapsible=0;recursiveResize=0;expand=0;fontFamily=IBM Plex Sans;fontColor=#000000;fontSize=14;image=;verticalAlign=middle;align=left;spacing=0;spacingLeft=12;spacingRight=16;spacingTop=0;spacingBottom=0;container=1" vertex="1" parent="miscdiagram_SyNq65yEY_43dyRMtW3VEf"><mxGeometry x="20" y="74" width="170" height="64" as="geometry"/></mxCell></UserObject><UserObject placeholders="1" label="ConfigMap" Icon-Name="kubernetes" _id="userobject_32dWPYaSr2n" id="miscdiagram_SyNq65yEY_103dyRMtWBxWu"><mxCell style="shape=mxgraph.ibm2mondrian.base;shapeType=pg;shapeLayout=expanded;colorFamily=blue;colorBackground=noColor:noColor;html=1;whiteSpace=wrap;metaEdit=1;strokeWidth=1;collapsible=0;recursiveResize=0;expand=0;fontFamily=IBM Plex Sans;fontColor=#000000;fontSize=14;image=;verticalAlign=middle;align=left;spacing=0;spacingLeft=12;spacingRight=16;spacingTop=0;spacingBottom=0;container=1" vertex="1" parent="miscdiagram_SyNq65yEY_43dyRMtW3VEf"><mxGeometry x="314" y="72" width="170" height="64" as="geometry"/></mxCell></UserObject><UserObject placeholders="1" label="Secret" Icon-Name="kubernetes" _id="userobject_32dWPbJxtqm" id="miscdiagram_SyNq65yEY_113dyRMtWVz9w"><mxCell style="shape=mxgraph.ibm2mondrian.base;shapeType=pg;shapeLayout=expanded;colorFamily=blue;colorBackground=noColor:noColor;html=1;whiteSpace=wrap;metaEdit=1;strokeWidth=1;collapsible=0;recursiveResize=0;expand=0;fontFamily=IBM Plex Sans;fontColor=#000000;fontSize=14;image=;verticalAlign=middle;align=left;spacing=0;spacingLeft=12;spacingRight=16;spacingTop=0;spacingBottom=0;container=1" vertex="1" parent="miscdiagram_SyNq65yEY_43dyRMtW3VEf"><mxGeometry x="20" y="148" width="170" height="64" as="geometry"/></mxCell></UserObject><UserObject placeholders="1" label="Ingress" Icon-Name="kubernetes" _id="userobject_32dWOtCcoI0" id="miscdiagram_SyNq65yEY_123dyRMtWuXpT"><mxCell style="shape=mxgraph.ibm2mondrian.base;shapeType=pg;shapeLayout=expanded;colorFamily=blue;colorBackground=noColor:noColor;html=1;whiteSpace=wrap;metaEdit=1;strokeWidth=1;collapsible=0;recursiveResize=0;expand=0;fontFamily=IBM Plex Sans;fontColor=#000000;fontSize=14;image=;verticalAlign=middle;align=left;spacing=0;spacingLeft=12;spacingRight=16;spacingTop=0;spacingBottom=0;container=1" vertex="1" parent="miscdiagram_SyNq65yEY_43dyRMtW3VEf"><mxGeometry x="314" y="148" width="170" height="64" as="geometry"/></mxCell></UserObject><mxCell id="miscdiagram_SyNq65yEY_133dyRMtWFe5e" value="" style="curved=1;endArrow=classic;html=1;jumpStyle=arc;jumpSize=8;rounded=1;exitX=1.003;exitY=0.578;exitPerimeter=0;" edge="1" parent="miscdiagram_SyNq65yEY_43dyRMtW3VEf" source="miscdiagram_SyNq65yEY_93dyRMtW0nXz" target="miscdiagram_SyNq65yEY_73dyRMtWYqJp"><mxGeometry width="50" height="50" relative="1" as="geometry"><mxPoint x="218" y="148" as="sourcePoint"/><mxPoint x="268" y="98" as="targetPoint"/><Array as="points"><mxPoint x="268" y="148"/></Array></mxGeometry></mxCell><mxCell id="miscdiagram_SyNq65yEY_143dyRMtW5ssw" value="" style="curved=1;endArrow=classic;html=1;jumpStyle=arc;jumpSize=8;rounded=1;exitX=0.013;exitY=0.542;exitPerimeter=0;" edge="1" parent="miscdiagram_SyNq65yEY_43dyRMtW3VEf" source="miscdiagram_SyNq65yEY_103dyRMtWBxWu" target="miscdiagram_SyNq65yEY_73dyRMtWYqJp"><mxGeometry width="50" height="50" relative="1" as="geometry"><mxPoint x="242" y="132" as="sourcePoint"/><mxPoint x="292" y="82" as="targetPoint"/><Array as="points"><mxPoint x="274" y="114"/></Array></mxGeometry></mxCell><mxCell id="miscdiagram_SyNq65yEY_153dyRMtWZhTA" value="" style="curved=1;endArrow=classic;html=1;jumpStyle=arc;jumpSize=8;rounded=1;" edge="1" parent="miscdiagram_SyNq65yEY_43dyRMtW3VEf" target="miscdiagram_SyNq65yEY_73dyRMtWYqJp"><mxGeometry width="50" height="50" relative="1" as="geometry"><mxPoint x="194" y="186" as="sourcePoint"/><mxPoint x="252" y="186" as="targetPoint"/><Array as="points"><mxPoint x="242" y="218"/></Array></mxGeometry></mxCell><mxCell id="miscdiagram_SyNq65yEY_163dyRMtWmg5A" value="" style="curved=1;endArrow=classic;html=1;jumpStyle=arc;jumpSize=8;rounded=1;exitX=-0.02;exitY=0.605;exitPerimeter=0;" edge="1" parent="miscdiagram_SyNq65yEY_43dyRMtW3VEf" source="miscdiagram_SyNq65yEY_123dyRMtWuXpT" target="miscdiagram_SyNq65yEY_73dyRMtWYqJp"><mxGeometry width="50" height="50" relative="1" as="geometry"><mxPoint x="258" y="100" as="sourcePoint"/><mxPoint x="308" y="50" as="targetPoint"/><Array as="points"><mxPoint x="274" y="242"/></Array></mxGeometry></mxCell><UserObject placeholders="1" label="Data Center (Passive)" Icon-Name="data--center" _id="userobject_31WB8sHgf1F" id="miscdiagram_SyNq65yEY_173dyRMtWEbig"><mxCell style="shape=mxgraph.ibm2mondrian.base;shapeType=pg;shapeLayout=expanded;colorFamily=blue;colorBackground=noColor:noColor;html=1;whiteSpace=wrap;metaEdit=1;strokeWidth=1;collapsible=0;recursiveResize=0;expand=0;fontFamily=IBM Plex Sans;fontColor=#000000;fontSize=14;image=;verticalAlign=middle;align=left;spacing=0;spacingLeft=12;spacingRight=16;spacingTop=0;spacingBottom=0;container=1" vertex="1" parent="1"><mxGeometry x="592" y="102" width="528" height="688" as="geometry"/></mxCell></UserObject><UserObject placeholders="1" label="OpenShift Cluster 2" Icon-Name="logo--openshift" _id="userobject_31WB8sI4A6U" id="miscdiagram_SyNq65yEY_183dyRMtW9oDJ"><mxCell style="shape=mxgraph.ibm2mondrian.base;shapeType=pg;shapeLayout=expanded;colorFamily=blue;colorBackground=noColor:noColor;html=1;whiteSpace=wrap;metaEdit=1;strokeWidth=1;collapsible=0;recursiveResize=0;expand=0;fontFamily=IBM Plex Sans;fontColor=#000000;fontSize=14;image=;verticalAlign=middle;align=left;spacing=0;spacingLeft=12;spacingRight=16;spacingTop=0;spacingBottom=0;container=1;labelBackgroundColor=none;" vertex="1" parent="miscdiagram_SyNq65yEY_173dyRMtWEbig"><mxGeometry x="8" y="56" width="504" height="608" as="geometry"/></mxCell></UserObject><UserObject placeholders="1" label="Router" Icon-Name="router" id="miscdiagram_SyNq65yEY_193dyRMtWY0Lj"><mxCell style="shape=mxgraph.ibm2mondrian.base;shapeType=ln;shapeLayout=collapsed;colorFamily=blue;colorBackground=noColor:noColor;html=1;whiteSpace=wrap;metaEdit=1;strokeWidth=1;collapsible=0;recursiveResize=0;expand=0;fontFamily=IBM Plex Sans;fontColor=#000000;fontSize=14;image=;verticalAlign=top;align=center;spacing=0;spacingLeft=0;spacingRight=0;spacingTop=0;spacingBottom=0;verticalLabelPosition=bottom;labelPosition=center;positionText=bottom;container=1" vertex="1" parent="miscdiagram_SyNq65yEY_183dyRMtW9oDJ"><mxGeometry x="198" y="-23" width="48" height="48" as="geometry"/></mxCell></UserObject><mxCell id="miscdiagram_SyNq65yEY_203dyRMtWluJJ" value="" style="group" vertex="1" connectable="0" parent="miscdiagram_SyNq65yEY_183dyRMtW9oDJ"><mxGeometry x="6" y="236" width="432" height="240" as="geometry"/></mxCell><UserObject placeholders="1" label="Worker Node" Icon-Name="cloud" _id="userobject_31WyEjwNlAQ" id="miscdiagram_SyNq65yEY_213dyRMtWzjR3"><mxCell style="shape=mxgraph.ibm2mondrian.base;shapeType=lg;shapeLayout=expanded;colorFamily=blue;colorBackground=noColor:noColor;html=1;whiteSpace=wrap;metaEdit=1;strokeWidth=1;collapsible=0;recursiveResize=0;expand=0;fontFamily=IBM Plex Sans;fontColor=#000000;fontSize=14;image=;verticalAlign=middle;align=left;spacing=0;spacingLeft=12;spacingRight=16;spacingTop=0;spacingBottom=0;container=1" vertex="1" parent="miscdiagram_SyNq65yEY_203dyRMtWluJJ"><mxGeometry width="432" height="240" as="geometry"/></mxCell></UserObject><UserObject placeholders="1" label="IBM Spectrum Protect" Icon-Name="cube" _id="userobject_31WyEjwEd7i" id="miscdiagram_SyNq65yEY_223dyRMtW451o"><mxCell style="shape=mxgraph.ibm2mondrian.base;shapeType=lg;shapeLayout=expanded;colorFamily=green;colorBackground=noColor:noColor;html=1;whiteSpace=wrap;metaEdit=1;strokeWidth=1;collapsible=0;recursiveResize=0;expand=0;fontFamily=IBM Plex Sans;fontColor=#000000;fontSize=14;image=;verticalAlign=middle;align=left;spacing=0;spacingLeft=12;spacingRight=16;spacingTop=0;spacingBottom=0;container=1;" vertex="1" parent="miscdiagram_SyNq65yEY_213dyRMtWzjR3"><mxGeometry x="72" y="81" width="144" height="68" as="geometry"/></mxCell></UserObject><UserObject placeholders="1" label="CP4BA (Inactive)" Icon-Name="cube" _id="userobject_31WyEjwGBlt" id="miscdiagram_SyNq65yEY_233dyRMtWrNwN"><mxCell style="shape=mxgraph.ibm2mondrian.base;shapeType=lg;shapeLayout=expanded;colorFamily=green;colorBackground=noColor:noColor;html=1;whiteSpace=wrap;metaEdit=1;strokeWidth=1;collapsible=0;recursiveResize=0;expand=0;fontFamily=IBM Plex Sans;fontColor=#000000;fontSize=14;image=;verticalAlign=middle;align=left;spacing=0;spacingLeft=12;spacingRight=16;spacingTop=0;spacingBottom=0;container=1;textOpacity=50;" vertex="1" parent="miscdiagram_SyNq65yEY_213dyRMtWzjR3"><mxGeometry x="274" y="86" width="144" height="68" as="geometry"/></mxCell></UserObject><UserObject placeholders="1" label="Deployment" Icon-Name="kubernetes" _id="userobject_32dXa1jUbzz" id="miscdiagram_SyNq65yEY_243dyRMtW3EzF"><mxCell style="shape=mxgraph.ibm2mondrian.base;shapeType=pg;shapeLayout=expanded;colorFamily=blue;colorBackground=noColor:noColor;html=1;whiteSpace=wrap;metaEdit=1;strokeWidth=1;collapsible=0;recursiveResize=0;expand=0;fontFamily=IBM Plex Sans;fontColor=#000000;fontSize=14;image=;verticalAlign=middle;align=left;spacing=0;spacingLeft=12;spacingRight=16;spacingTop=0;spacingBottom=0;container=1" vertex="1" parent="miscdiagram_SyNq65yEY_183dyRMtW9oDJ"><mxGeometry x="24" y="68" width="170" height="64" as="geometry"/></mxCell></UserObject><UserObject placeholders="1" label="Secret" Icon-Name="kubernetes" _id="userobject_32dXa1k8YvK" id="miscdiagram_SyNq65yEY_253dyRMtWCdBE"><mxCell style="shape=mxgraph.ibm2mondrian.base;shapeType=pg;shapeLayout=expanded;colorFamily=blue;colorBackground=noColor:noColor;html=1;whiteSpace=wrap;metaEdit=1;strokeWidth=1;collapsible=0;recursiveResize=0;expand=0;fontFamily=IBM Plex Sans;fontColor=#000000;fontSize=14;image=;verticalAlign=middle;align=left;spacing=0;spacingLeft=12;spacingRight=16;spacingTop=0;spacingBottom=0;container=1" vertex="1" parent="miscdiagram_SyNq65yEY_183dyRMtW9oDJ"><mxGeometry x="24" y="142" width="170" height="64" as="geometry"/></mxCell></UserObject><UserObject placeholders="1" label="ConfigMap" Icon-Name="kubernetes" _id="userobject_32dXa1kbKCp" id="miscdiagram_SyNq65yEY_263dyRMtWFSZ0"><mxCell style="shape=mxgraph.ibm2mondrian.base;shapeType=pg;shapeLayout=expanded;colorFamily=blue;colorBackground=noColor:noColor;html=1;whiteSpace=wrap;metaEdit=1;strokeWidth=1;collapsible=0;recursiveResize=0;expand=0;fontFamily=IBM Plex Sans;fontColor=#000000;fontSize=14;image=;verticalAlign=middle;align=left;spacing=0;spacingLeft=12;spacingRight=16;spacingTop=0;spacingBottom=0;container=1" vertex="1" parent="miscdiagram_SyNq65yEY_183dyRMtW9oDJ"><mxGeometry x="286" y="66" width="170" height="64" as="geometry"/></mxCell></UserObject><UserObject placeholders="1" label="Ingress" Icon-Name="kubernetes" _id="userobject_32dXa1kvhMw" id="miscdiagram_SyNq65yEY_273dyRMtWKnd0"><mxCell style="shape=mxgraph.ibm2mondrian.base;shapeType=pg;shapeLayout=expanded;colorFamily=blue;colorBackground=noColor:noColor;html=1;whiteSpace=wrap;metaEdit=1;strokeWidth=1;collapsible=0;recursiveResize=0;expand=0;fontFamily=IBM Plex Sans;fontColor=#000000;fontSize=14;image=;verticalAlign=middle;align=left;spacing=0;spacingLeft=12;spacingRight=16;spacingTop=0;spacingBottom=0;container=1" vertex="1" parent="miscdiagram_SyNq65yEY_183dyRMtW9oDJ"><mxGeometry x="286" y="142" width="170" height="64" as="geometry"/></mxCell></UserObject><mxCell id="miscdiagram_SyNq65yEY_283dyRMtWXlxT" value="" style="curved=1;endArrow=classic;html=1;jumpStyle=arc;jumpSize=8;rounded=1;" edge="1" parent="miscdiagram_SyNq65yEY_183dyRMtW9oDJ" source="miscdiagram_SyNq65yEY_223dyRMtW451o" target="miscdiagram_SyNq65yEY_253dyRMtWCdBE"><mxGeometry width="50" height="50" relative="1" as="geometry"><mxPoint x="216" y="180" as="sourcePoint"/><mxPoint x="266" y="130" as="targetPoint"/><Array as="points"><mxPoint x="168" y="274"/></Array></mxGeometry></mxCell><mxCell id="miscdiagram_SyNq65yEY_293dyRMtWJ0Iz" value="" style="curved=1;endArrow=classic;html=1;jumpStyle=arc;jumpSize=8;rounded=1;" edge="1" parent="miscdiagram_SyNq65yEY_183dyRMtW9oDJ" source="miscdiagram_SyNq65yEY_223dyRMtW451o" target="miscdiagram_SyNq65yEY_243dyRMtW3EzF"><mxGeometry width="50" height="50" relative="1" as="geometry"><mxPoint x="216" y="180" as="sourcePoint"/><mxPoint x="266" y="130" as="targetPoint"/><Array as="points"><mxPoint x="240" y="180"/><mxPoint x="216" y="130"/></Array></mxGeometry></mxCell><mxCell id="miscdiagram_SyNq65yEY_303dyRMtWvWPe" value="" style="curved=1;endArrow=classic;html=1;jumpStyle=arc;jumpSize=8;rounded=1;entryX=0.047;entryY=0.435;entryPerimeter=0;" edge="1" parent="miscdiagram_SyNq65yEY_183dyRMtW9oDJ" source="miscdiagram_SyNq65yEY_223dyRMtW451o" target="miscdiagram_SyNq65yEY_263dyRMtWFSZ0"><mxGeometry width="50" height="50" relative="1" as="geometry"><mxPoint x="224" y="124" as="sourcePoint"/><mxPoint x="274" y="74" as="targetPoint"/><Array as="points"><mxPoint x="248" y="218"/></Array></mxGeometry></mxCell><mxCell id="miscdiagram_SyNq65yEY_313dyRMtWm7qt" value="" style="curved=1;endArrow=classic;html=1;jumpStyle=arc;jumpSize=8;rounded=1;" edge="1" parent="miscdiagram_SyNq65yEY_183dyRMtW9oDJ" source="miscdiagram_SyNq65yEY_223dyRMtW451o" target="miscdiagram_SyNq65yEY_273dyRMtWKnd0"><mxGeometry width="50" height="50" relative="1" as="geometry"><mxPoint x="224" y="132" as="sourcePoint"/><mxPoint x="274" y="82" as="targetPoint"/><Array as="points"><mxPoint x="304" y="282"/></Array></mxGeometry></mxCell><mxCell id="miscdiagram_SyNq65yEY_323dyRMtWAUvF" value="" style="edgeStyle=segmentEdgeStyle;endArrow=classic;html=1;jumpStyle=arc;jumpSize=8;rounded=1;entryX=0.5;entryY=0.021;entryPerimeter=0;exitX=0;exitY=0.5;" edge="1" parent="1" source="miscdiagram_SyNq65yEY_23dyRMtWPbE9" target="miscdiagram_SyNq65yEY_53dyRMtWoZAi"><mxGeometry width="50" height="50" relative="1" as="geometry"><mxPoint x="304" y="82" as="sourcePoint"/><mxPoint x="354" y="32" as="targetPoint"/><Array as="points"><mxPoint x="244" y="46"/></Array></mxGeometry></mxCell><mxCell id="miscdiagram_SyNq65yEY_333dyRMtWmwVX" value="" style="edgeStyle=segmentEdgeStyle;endArrow=classic;html=1;jumpStyle=arc;jumpSize=8;rounded=1;dashed=1;entryX=0.5;entryY=0.021;entryPerimeter=0;exitX=1;exitY=0.5;" edge="1" parent="1" source="miscdiagram_SyNq65yEY_23dyRMtWPbE9" target="miscdiagram_SyNq65yEY_193dyRMtWY0Lj"><mxGeometry width="50" height="50" relative="1" as="geometry"><mxPoint x="744" y="82" as="sourcePoint"/><mxPoint x="794" y="32" as="targetPoint"/></mxGeometry></mxCell><mxCell id="miscdiagram_SyNq65yEY_343dyRMtWwaKi" value="Changed Resources" style="html=1;shadow=0;dashed=0;align=center;verticalAlign=middle;shape=mxgraph.arrows2.arrow;dy=0.6;dx=40;notch=0;" vertex="1" parent="1"><mxGeometry x="400" y="472" width="256" height="68" as="geometry"/></mxCell></root></mxGraphModel>